<svg xmlns="http://www.w3.org/2000/svg" aria-hidden="true" style="position:absolute;width:0;height:0;overflow:hidden">
  <defs>
    <symbol id="icon-foster-peters" viewBox="0 0 65 32">
      <path d="M10 10c-1.8 0-3.3 1.3-3.3 3 0 1.6 1.5 2.9 3.3 2.9 1.8 0 3.3-1.3 3.3-3 0-1.6-1.5-3-3.3-3zm24.4-1c0-2.2-1-4.4-2.8-6A10.2 10.2 0 0 0 25 .5c-2.6 0-5 1-6.8 2.5a8 8 0 0 0-2.8 6v12.5s19.1-2 19.1-12.5zM0 25.6c0 1.5.7 3 2 4.1a7 7 0 0 0 4.6 1.8c1.8 0 3.5-.6 4.8-1.8 1.1-1 1.9-2.5 2-4.1v-8.7S0 18.2 0 25.6zM6.7 27c-.4 0-.7 0-1-.2-.3-.2-.5-.4-.6-.7a1.4 1.4 0 0 1-.1-1l.4-.7 1-.5 1 .1c.3.1.5.3.7.6a1.4 1.4 0 0 1-.2 2 1.8 1.8 0 0 1-1.2.4zm13.4-.8h-1.3v1.3h-.6v-3.3h2v.6h-1.4v.8h1.3v.6zm3.2-.3-.1.9c-.2.4-.7.7-1.2.7-.6 0-1-.3-1.3-.7l-.1-.8v-.2l.1-.8c.3-.5.7-.8 1.2-.8.3 0 .6 0 .8.2.2.1.4.3.5.6l.1.8v.1zm-.6-.1c0-.4 0-.6-.2-.8a.6.6 0 0 0-.5-.3c-.3 0-.4.1-.6.3s-.1.4-.1.8v.1l.1.8c.1.2.3.3.6.3.2 0 .4-.1.5-.3l.2-.8V26zm2.8.8-.1-.3-.5-.2-.6-.2c-.3-.2-.5-.5-.5-.8l.1-.5c.1-.2.3-.2.5-.3a1.6 1.6 0 0 1 1.2 0 1 1 0 0 1 .6.9h-.7l-.1-.3a.6.6 0 0 0-.4-.2l-.4.1-.1.3.1.3.5.2c.4 0 .7.2.8.4l.3.6c0 .3-.1.5-.3.7s-.5.2-.9.2l-.7-.1a1 1 0 0 1-.6-1h.7c0 .4.2.6.6.6h.4l.1-.4zm3.6-1.8h-1v2.7h-.7v-2.7h-1v-.6h2.7v.6zm2.3 1.3h-1.3v.8h1.6v.6h-2.2v-3.3h2.1v.6h-1.5v.8h1.3v.5zm1.9.2h-.6v1.2H32v-3.3h1.3c.3 0 .6.1.8.3.3.2.4.4.4.7 0 .2 0 .4-.2.6l-.4.3.7 1.4h-.7l-.7-1.2zm-.6-.5h.6c.1 0 .3 0 .3-.2l.2-.3-.1-.4-.4-.1h-.6v1zm4 .5v1.2h-.6v-3.3h1.3c.2 0 .4 0 .6.2.2 0 .3.2.4.4l.2.5c0 .3-.1.6-.3.8l-1 .2h-.5zm0-.5h.7l.4-.1.1-.4-.1-.4a.5.5 0 0 0-.4-.1h-.6v1zm4.3.3h-1.3v.8h1.5v.6h-2.1v-3.3h2.1v.6h-1.5v.8H41v.5zm3.1-1.3h-1v2.7h-.6v-2.7h-1v-.6H44v.6zm2.4 1.3h-1.3v.8h1.5v.6h-2.2v-3.3h2.2v.6h-1.5v.8h1.3v.5zm1.8.2h-.6v1.2h-.6v-3.3h1.2c.4 0 .7.1.9.3.2.2.3.4.3.7 0 .2 0 .4-.2.6a1 1 0 0 1-.4.3l.7 1.4H49l-.6-1.2zm-.6-.5h.6c.1 0 .3 0 .4-.2l.1-.3-.1-.4-.4-.1h-.6v1zm4 .8s0-.2-.2-.3l-.4-.2a3 3 0 0 1-.6-.2c-.4-.2-.5-.5-.5-.8l.1-.5.4-.3a1.7 1.7 0 0 1 1.3 0c.2 0 .3.2.4.4l.1.5h-.6c0-.2 0-.3-.2-.3a.6.6 0 0 0-.3-.2l-.4.1-.2.3c0 .1 0 .2.2.3l.5.2c.3 0 .6.2.8.4s.3.4.3.6c0 .3-.2.5-.4.7s-.5.2-.8.2l-.7-.1a1 1 0 0 1-.6-1h.6c0 .4.2.6.7.6h.4v-.4z"/>
    </symbol>
    <symbol id="icon-ya-co" viewBox="0 0 57 32">
      <path d="M20.3 3.7 24 7.3h-7v17.1h18.2V18l3.7 3.5V3.7H20.3zM35 17.5l-10.6-10H35v10zm-3.3 4.4H20V10.4h.9V21h11v.8zm-9 4.8-.4 1-.4-1h-.4L22 28v.7h.4V28l.6-1.2h-.4zm.6 2 .1-.5h.8l.1.4h.4l-.8-1.9h-.3l-.7 2h.4zm.5-1.6.3.8h-.6l.3-.8zm1.7.8v.2l.1.4.5.1.5-.1v.1h.4l-.2-.3.1-.6h-.3v.4l-.4-.5h.1l.2-.3v-.5l-.4-.1-.4.1a.5.5 0 0 0 0 .4v.2l.1.2-.3.3zm.9.4h-.5l-.1-.2.1-.3.5.5zm-.4-.9V27H26.3V27.3h-.1l-.2.1zm3.1 1c.2 0 .2-.2.3-.4H29v.3h-.7l-.1-.6v-.1l.1-.5.3-.1h.3l.1.3h.4L29 27a.8.8 0 0 0-1 0l-.2.2v1.1l.3.3.4.1.5-.1zm2-.2v-1.1a.7.7 0 0 0-.7-.4l-.4.1-.3.3-.1.5v.6l.4.3.4.1h.4l.3-.4zm-.4-1 .1.4v.6l-.4.2-.4-.2a.8.8 0 0 1 0-.5V27a.4.4 0 0 1 .4-.1l.3.1z"/>
    </symbol>
    <symbol id="icon-tagline-here" viewBox="0 0 57 32">
      <path d="M26.7 3.2h-1.3c-2 0-3.9.6-5.6 1.4l-.3.1v11.8l.6-.2a18 18 0 0 1 5.8-1V17h-.6c-2.7.1-5.2.9-7.4 2h.1V3.8c1.2-.7 2.6-1.3 4-1.7h.2c1.1-.3 2.5-.5 3.9-.5h.2c1 0 2 .1 2.8.4v1.5c-.6-.2-1.2-.3-2-.3h-.4zm2.7 1.5a16.4 16.4 0 0 0 5.3-.5h-.1a17 17 0 0 0 4-1.6v15c-1.3.7-2.7 1.3-4.1 1.6h-.1c-1.3.4-2.6.6-4 .6-1 0-2-.2-3-.4v-15c.6.2 1.3.3 2 .3zm7.6.1-.6.2a18 18 0 0 1-7 1H29V18h.4a13.7 13.7 0 0 0 4.7-.4H34c1-.2 2-.6 2.8-1h.2V4.7zM19 24.1a.8.8 0 0 0-.5-.2 1 1 0 0 0-.4 0 .8.8 0 0 0-.5.8v2.5l.3.2.3.2h.3c.4 0 .8-.4.8-.8v-.3h-.5v.4l-.1.1h-.5V24.5l.2-.1.3.1v.5h.6v-.2c0-.3 0-.5-.2-.7zm3.2 0a1 1 0 0 0-1-.2l-.2.2a.9.9 0 0 0-.3.7v1.9l.1.4.2.3.3.1a1 1 0 0 0 .6 0c.3 0 .6-.4.6-.7v-2c0-.3-.1-.5-.3-.7zm-.2 2.6-.1.3a.4.4 0 0 1-.5 0l-.2-.3v-2s0-.2.2-.2a.4.4 0 0 1 .5 0v2.2zm4.3.9v-3.7h-.5l-.6 2-.7-2H24v3.7h.5v-2.3L25 27h.3l.5-1.6v2.3h.5zm3-3.4L29 24l-.4-.1H28v3.7h.5V26h.7c.2-.2.4-.4.4-.7a2.5 2.5 0 0 0 0-1v.1l-.2-.3zm-.3 1v.3l-.1.1h-.5v-1.2h.5l.1.2v.7zm2.8-1.3h-.4l-.8 3.7h.5l.1-.8h.7l.2.8h.5l-.8-3.7zm-.5 2.4.3-1.3.2 1.3h-.5zm3.9-.2-.8-2.2h-.5v3.7h.5v-2.2l.8 2.2h.5v-3.7h-.5V26zm3.2-2.2-.5 1.5-.4-1.5H37l.7 2.1v1.6h.5V26L39 24h-.5zm-20.8 4.7h.3v.7h.1v-.7h.3v-.1h-.7v.1zm2.1-.1-.3.8h.2v-.2h.4v.2h.2l-.3-.8h-.2zm0 .5.1-.3.1.3h-.2zm2.1 0h.2v.1h-.4V29c0-.2 0-.3.2-.3l.2.1h.2c0-.2-.2-.3-.4-.3-.1 0-.2 0-.3.2a.4.4 0 0 0-.1.3l.1.3.3.1.4-.1v-.3h-.4v.1zm2.2-.5h-.2v.8h.6v-.1H24v-.7zm1.8 0h-.2v.8h.2v-.8zm1.7.5-.3-.5H27v.8h.2v-.5l.3.5h.2v-.8h-.2v.5zm1.6 0h.5v-.2H29v-.2h.5v-.1H29v.8h.6v-.1h-.5v-.3zm4-.2h-.4v-.3h-.2v.8h.2V29h.3v.4h.2v-.8H33v.3zm1.5.1h.5v-.1h-.5v-.2h.5v-.1h-.6v.8h.6v-.1h-.5v-.3zm2.2 0c.2 0 .2 0 .2-.2v-.2h-.7v.8h.2V29h.2l.2.3h.2l-.1-.1-.2-.3zm-.2 0v-.3h.2a.1.1 0 0 1 0 .2h-.1zm1.9 0h.4v-.1h-.4v-.2h.4v-.1h-.6v.8h.6v-.1h-.4v-.3z"/>
    </symbol>
    <symbol id="icon-company" viewBox="0 0 57 32">
      <path d="m19.4 26.2.2.1-.3.2-.5.1h-.4a.9.9 0 0 1-.6-.6 1 1 0 0 1 0-.8 1 1 0 0 1 .6-.5 1.3 1.3 0 0 1 .9 0l.3.2-.1.1H19.1l-.3-.1a1 1 0 0 0-.4 0c-.2 0-.3.2-.4.4v.6c0 .2.2.4.4.4h.9v-.1zm3.4-.6-.1.4-.2.3a1 1 0 0 1-.4.2h-.9a1 1 0 0 1-.3-.2l-.2-.3a1 1 0 0 1 0-.8l.2-.3a1.1 1.1 0 0 1 .8-.2h.4l.4.2c.2.2.3.4.3.7zm-.3 0v-.3L22 25a1 1 0 0 0-.6 0l-.3.2-.1.2v.6c0 .2.2.4.4.4h.6l.3-.1.1-.3v-.3zm2.6.4v-.1l.8-1.2H26.3v1.9H26V25l-.8 1.1v.1H25l-.8-1.3v1.6h-.3v-2h.3v.1L25 26zm2.8-.1v.7h-.3v-2h.6l.4.1.2.1.2.2v.3c0 .1 0 .3-.2.4l-.2.1h-.7zm0-.2h.5l.2-.2.1-.2V25l-.1-.1a.6.6 0 0 0-.4-.1H28v.8zm3.9.9h-.3l-.3-.5h-1l-.2.4h-.3l.9-1.8h.3l.9 1.9zm-1.5-.7h.9l-.4-.8v-.2.1l-.1.1-.4.8zm2.7-1.2 1.3 1.5v-1.5h.3v1.9h-.2L33 25v1.5h-.3v-2h.2zm3.7 1.1v.8h-.2v-.8l-.8-1.1H36l.5.8.1.1.1-.1.5-.8h.4l-.9 1.1zM25 21.5h.4c2-.7 3.6-2 4.8-3.6 1-1.4 1.7-3.2 1.7-5.1v-.2l-2.2-1.8c.5 2 .2 4-.6 5.9-.9 2-2.3 3.6-4 4.7z"/>
      <path d="M24.1 21.4h.1c2-1.2 3.5-3 4.3-5a9 9 0 0 0 .4-6.2l-3-2.6a11.4 11.4 0 0 1 1.4 7.2 12 12 0 0 1-3.2 6.6zm10.5-6.6c-.6 2.2-1.9 4-3.6 5.3-.6.4-1.1.8-1.7 1 1.4-.3 2.8-1 4-1.9a9 9 0 0 0 2.5-3.2l-1.2-1.2z"/>
      <path d="M34.1 14.5 32.3 13c0 1.9-.6 3.6-1.7 5a11 11 0 0 1-4.2 3.5h1.1a11 11 0 0 0 4.3-2.8 9 9 0 0 0 2.3-4.1zm-9.7-8-2.1-1.9a10 10 0 0 0-4.7 3.2 8 8 0 0 0-1.8 5c0 2 .9 4 2.2 5.4 1.4 1.5 3.3 2.6 5.4 3a10.6 10.6 0 0 0 3.3-8c0-2.4-.8-4.8-2.3-6.7zM39 14.3c0-2.4-1-4.6-3-6.2a10.8 10.8 0 0 0-7-2.6c-1.3 0-2.5.2-3.7.6l13 11.3c.5-1 .7-2 .7-3.1z"/>
    </symbol>
    <symbol id="icon-brand" viewBox="0 0 57 32">
      <path d="m14.3 23.9.2.5-.1.3-.2.3c-.3.2-.6.3-1 .3h-1.5V22h1.5c.3 0 .6 0 .9.2l.2.3v.8l-.6.3c.3 0 .4.1.6.3zm-1.8-.5h.6l.4-.1.1-.2v-.5a.7.7 0 0 0-.5-.1h-.6v.9zm1 1.2.2-.1V24l-.1-.1a.7.7 0 0 0-.5-.2h-.6v1h.6c.2 0 .4 0 .5-.2zM17.4 25.3l-.9-1.3h-.3v1.3h-.7V22h1.4c.3 0 .6 0 1 .3l.2.6c0 .2 0 .5-.2.7l-.6.4.9 1.3h-.8zm-1.2-1.8h.6c.4 0 .6-.1.6-.5a.5.5 0 0 0-.1-.3.7.7 0 0 0-.5-.2h-.6v1zM21.3 24.6H20l-.3.7H19l1.3-3.3h.8l1.4 3.3h-.8l-.3-.7zm-.2-.5-.5-1.4-.5 1.4h1zM26.3 25.3h-.7L24 23v2.3h-.8V22h.8l1.6 2.2V22h.7v3.3zM30.4 24.5l-.6.6-1 .2h-1.3V22h1.3c.3 0 .7 0 1 .2.2.1.5.3.6.6.2.2.2.5.2.8l-.2.9zm-.8 0 .3-.9c0-.3-.1-.5-.3-.8-.3-.2-.6-.3-1-.2h-.4v2h.5c.3.1.6 0 .9-.2zM21.8 3.6s9.3 3.2 9 7.9v7.8s-9.2-3.2-9-7.8V3.6zM39.2 17.5c1.7-1.1 3.8-1.8 5.9-2V13a12 12 0 0 0-6 4.5z"/>
      <path d="M38.1 18.2c1.5-2.6 4-4.7 7-5.7v-7S31.8 10 32 16.5v11.2l1.5-.5v-1.1c.4-3.1 2-6 4.5-8z"/>
      <path d="M36.9 22.4c0-.8.2-1.5.4-2.3a10.4 10.4 0 0 0-2.8 6.8l2.6-1.2c-.3-1.1-.3-2.2-.2-3.3zM37.4 22.4c-.1 1 0 2 .2 3 3.6-2 7.6-5 7.5-8.8v-.3c-2.6.3-5 1.3-6.9 3-.4 1-.7 2-.8 3.1z"/>
    </symbol>
    <symbol id="icon-tag-line" viewBox="0 0 57 32">
      <path d="M28.5 14.6a1.6 1.6 0 0 1-.3-1V12c0-.5 0-.8.3-1s.6-.4 1-.4c.6 0 1 0 1.1.3.3.3.4.6.3 1v.3h-.8v-.7l-.2-.3h-.6l-.2.3v2.2l.1.5a.4.4 0 0 0 .4.2h.3l.1-.3v-.8h1v.4c0 .3-.1.7-.4 1-.2.2-.5.3-1 .3s-.9-.1-1.1-.4zm3.6 0c-.2-.2-.3-.6-.3-1V12c0-.5.1-.8.3-1 .3-.3.6-.4 1.1-.4.6 0 1 0 1.1.3.3.3.4.6.4 1v1.7c0 .4-.1.8-.4 1-.2.3-.5.4-1 .4s-1-.1-1.2-.4zm1.6-.4v-2.9l-.2-.1a.5.5 0 0 0-.3 0H33l-.2.1v3a.6.6 0 0 0 .7 0h.2zm2-3.6h1l.7 3 .7-3h1V15h-.7v-3l-.7 3H37l-.7-3v3h-.8l.1-4.3zm4.5 0h1.4c.9 0 1.3.4 1.3 1.3 0 .7-.4 1.1-1.3 1.1H41v2h-1v-4.4zm1.2 1.9h.3l.2-.2.2-.5v-.3l-.2-.2a1 1 0 0 0-.5-.1h-.3v1.3h.3zm2.8-1.9h1l1 4.3h-.9l-.2-1h-.8l-.2 1h-.9l1-4.3zm.9 2.8-.4-1.8-.3 1.8h.7zm1.9-2.8h.6l1.2 2.5v-2.5h.8V15H49l-1.2-2.5v2.5H47v-4.3zm4.4 2.7-1-2.7h.8l.6 1.7.6-1.7h.8l-1 2.7v1.6h-.8v-1.6zm-21.5 3.5v.2h-.7v1.8h-.4V17h-.7v-.2h1.8zm2.3 2H32l-.3-.5h-1l-.2.4v.1H30l.9-2h.3l1 2zm-1.5-.7h.9l-.4-.8V17H31v.2l-.4.8zm3 .5h.5l.1-.1V18H34v-.2h.6v.8l-.6.2h-.7l-.4-.3a1 1 0 0 1-.2-.3l-.1-.4c0-.3.1-.5.3-.7l.4-.2a1.5 1.5 0 0 1 .7 0h.4l.2.2h-.1v.1h-.2l-.5-.2a1 1 0 0 0-.4.1.7.7 0 0 0-.4.4v.7a.8.8 0 0 0 .8.4zm3 0h1v.2h-1.3v-2h.3v1.8zm2 .2h-.3v-2h.3v2zm1.1-2 1.4 1.6v-1.6h.3v2H41.2l-1.3-1.5v1.5h-.3v-2h.2zm4 0v.2h-1.1v.7h.8v.2h-.8v.7h1v.2h-1.4v-2h1.5zM11.3 4.6 25 8v11.8l-13.7-3.4V4.6zm-.9-1V17L26 20.8V7.4L10.4 3.6z"/>
      <path d="M18.7 27 3.2 23.2V9.8l15.5 3.8V27z"/>
      <path d="m10.7 4.5 13.5 3.3-5.7 5L4.9 9.4l5.8-5zm-.3-.9L3.2 9.8l15.5 3.8L26 7.4 10.4 3.6zm9.2 22.7 6.3-5.5-6.3-1.5v7z"/>
    </symbol>
    <symbol id="icon-antenna" viewBox="0 0 32 32">
      <path fill="#212121" d="m30.8 22.1-8.5-8.5 1-4.6.7.1a2.2 2.2 0 1 0-2-1.4l-5 .6L9 .2a.5.5 0 0 0-.4-.2c-.1 0-.3 0-.4.2L6.7 1.7a.5.5 0 0 0 0 .7l.8.8A14.9 14.9 0 0 0 10 21l.2.1v6.7H3.6a2.7 2.7 0 0 0-2.6 2.7v1c0 .4.2.6.5.6h24.5c.3 0 .6-.2.6-.5v-1.1c0-1.5-1.2-2.7-2.7-2.7h-6.4V25a15 15 0 0 0 10.2-1.5h-.1l.8.9.4.1.4-.1 1.5-1.5a.5.5 0 0 0 0-.8zM23.3 6.2c.2-.2.4-.3.7-.3a1 1 0 0 1 0 2.2 1 1 0 0 1-.7-1.9zM22 9.7l-.6 3-1.1-1.2L22 9.7zm-.6-.9-1.9 2L18 9.2l3.4-.5zm2.6 20c.9 0 1.6.7 1.6 1.6v.5H2.1v-.5c0-.9.8-1.6 1.6-1.6H24zm-7.5-2.1v1h-5.3v-1h5.3zm-5.3-1.1v-4c0-1.3 1.2-2.4 2.7-2.4s2.6 1 2.6 2.3v4.1h-5.3zm6.4-1.7v-2.4c0-1.8-1.7-3.4-3.7-3.4-1.4 0-2.6.7-3.3 1.8A13.8 13.8 0 0 1 8.3 4V4L27 22.7a13.6 13.6 0 0 1-9.4 1.2h.1zm11.3-.7L7.9 2l.7-.7 8 8 13 13.2-.7.7z" style="fill:var(--color1, #212121)"/>
      <path fill="#2196f3" d="M13.9 20.3a1.6 1.6 0 0 0 0 3.2 1.6 1.6 0 0 0 0-3.2zm.3 2-.3.1a.5.5 0 0 1 0-1 .5.5 0 0 1 .3.8z" style="fill:var(--color2, #2196f3)"/>
    </symbol>
    <symbol id="icon-clock" viewBox="0 0 32 32">
      <path fill="#212121" d="M31.3 15.3a15.3 15.3 0 1 0-20 14.6H12l.2-.4 4-12.3a2 2 0 1 0-1-3.6l-5-5.1a.6.6 0 0 0-1 .9l5.2 5c-.2.3-.2.6-.2 1 0 .5.3 1 .7 1.4l-3.7 11.7a14 14 0 1 1 10.7-.4h-.1l-.4-1.9a.6.6 0 0 0-1-.3l-3.9 3.4-.2.5c0 .3.2.5.4.6l5 1.6h.1a.6.6 0 0 0 .7-.8l-.4-1.8c5.5-2.4 9.3-7.8 9.3-14v-.1zM16 14.7a.6.6 0 0 1 0 1.2.6.6 0 0 1 0-1.2zm2 14.8 2.3-2 .6 3-2.8-1z" style="fill:var(--color1, #212121)"/>
      <path fill="#2196f3" d="M15.4 3.2v1.3a.6.6 0 0 0 1.2 0V3.2a.6.6 0 1 0-1.2 0zM3.9 14.7a.6.6 0 0 0 0 1.2h1.3a.6.6 0 0 0 0-1.2H3.9zM28 15.9a.6.6 0 0 0 0-1.2h-1.3a.6.6 0 0 0 0 1.2h1.3z" style="fill:var(--color2, #2196f3)"/>
    </symbol>
    <symbol id="icon-diagram" viewBox="0 0 32 32">
      <path fill="#2196f3" d="M15 15h1v4.8h-1V15zm4.2 2.1h1v2.7h-1V17zm-8.5 1.6h1v1h-1v-1zm-3.2-.5h1v1.6h-1v-1.6z" style="fill:var(--color2, #2196f3)"/>
      <path fill="#212121" d="M1.6 28.3h25.6c.9 0 1.6-.7 1.6-1.6v-2.1c0-1-.7-1.6-1.6-1.6h-.5V9.7l3-2.9.7.2a1.6 1.6 0 1 0-1.5-1l-2.2 2.2V7c0-1-.8-1.6-1.6-1.6H3.7c-.9 0-1.6.7-1.6 1.6v16h-.5c-.9 0-1.6.7-1.6 1.6v2c0 1 .7 1.7 1.6 1.7zM30.4 4.8a.5.5 0 0 1 0 1.1.5.5 0 0 1 0-1zM3.2 7c0-.3.2-.6.5-.6h21.4c.2 0 .5.3.5.6v2.2l-1 1V8c0-.3-.3-.5-.6-.5H4.8c-.3 0-.5.2-.5.5v13.4c0 .3.2.5.5.5H24c.3 0 .5-.2.5-.5v-9.7l1-1V23H3.3V7zM8 13.9A1.6 1.6 0 1 0 9 16.6l1.9 1 .6-.1 4-4.5 3.8 3 .7-.1 3.4-3.2v8.1H5.3V8.6h18.2v2.6l-3.8 3.6-4-3h-.2l-.4.1-4 4.5-1.5-.7v-.2c0-.9-.7-1.6-1.6-1.6zm.5 1.6a.5.5 0 0 1-1 0 .5.5 0 0 1 1 0zm3.2 8.5h5.4v.6c0 .3-.3.5-.6.5h-4.2a.5.5 0 0 1-.6-.5V24zm-10.6.6c0-.3.2-.6.5-.6h9v.6c0 .8.8 1.6 1.7 1.6h4.2c1 0 1.6-.8 1.6-1.6V24h9c.4 0 .6.3.6.6v2c0 .4-.2.6-.5.6H1.6a.5.5 0 0 1-.5-.5v-2.1z" style="fill:var(--color1, #212121)"/>
    </symbol>
    <symbol id="icon-astronaut" viewBox="0 0 32 32">
      <path fill="#2196f3" d="M32 4.5c0-.2-.3-.3-.5-.3l-1.9-.3-.8-1.7c-.2-.4-.8-.4-1 0L27 3.9l-2 .3a.5.5 0 0 0-.2.9L26 6.4l-.3 2c0 .1 0 .3.2.4.2.2.4.2.6 0l1.7-.8 1.7.9h.3a.5.5 0 0 0 .5-.6l-.3-1.9 1.3-1.3a.5.5 0 0 0 .2-.6zM29.5 6c-.1 0-.2.2-.1.4l.1 1.1-1-.5a.5.5 0 0 0-.5 0l-1 .5.2-1v-.2l-.1-.3-.8-.8 1.1-.2c.2 0 .3-.1.4-.3l.5-1 .5 1c0 .2.2.3.4.3l1.1.2-.8.8zm-3.4 14.6h-1v1h1v-1zm0 2.2h-1v1h1v-1zm1.1-1.1h-1v1h1v-1zm-2.1 0H24v1h1v-1zm-2.7 4.8h-1v1h1v-1zm0 2.1h-1v1h1v-1zm1-1h-1v1h1v-1zm-2 0h-1.1v1h1v-1zM16 24.3h-1v1h1v-1zm0 2h-1v1.2h1v-1.1zm1-1h-1v1h1v-1zm-2 0h-1.1v1h1v-1zM5.8 6.1H4.8v1h1v-1zm0 2.2H4.8v1h1v-1zm1-1.1H6v1h1v-1zm-2.1 0h-1v1h1v-1z" style="fill:var(--color2, #2196f3)"/>
      <path fill="#212121" d="M24.7 14.2c-.3-.4-.7-.7-1.2-.7h-.2c-.4 0-.8 0-1.1.3l-1.3 1-1.9 1.4-1.3-.6a7 7 0 0 0-2.9-13.2A7 7 0 0 0 9 13H6l-3.2 1.6-2 1A1.8 1.8 0 0 0 .2 18c.2.4.6.7 1 .8l.6.1c.3 0 .6 0 .8-.2L4 18l2.3-1.2h1.3l-5.4 5.4-1.3 1.3c-.3.3-.5.8-.5 1.2 0 1 .7 1.7 1.6 1.7.5 0 .9-.2 1.2-.5l1.3-1.3 1.8-1.3.9.9-3.1 3c-.3.4-.5.8-.5 1.3A1.7 1.7 0 0 0 5.2 30c.5 0 .9-.1 1.2-.5l4.5-4.4 5.2-5.7 3.5.5a.5.5 0 0 0 .2 0l.1-.1 3.3-2.1 1.3-1.3a1.8 1.8 0 0 0 .2-2.3zM2.1 17.8a.7.7 0 0 1-.5 0 .7.7 0 0 1-.2-1.2l1.3-.7.3 1 .1.3-1 .6zm3.5-1.9-1.5.8-.3-.7-.2-.5 2-1v1.4zm15.1-6.6c0 1-.2 1.8-.6 2.6l-4.2-2c0-.5-.3-1-.7-1.3l1.4-4.9c2.4.8 4.1 3 4.1 5.6zM9 9.3a5.9 5.9 0 0 1 6.7-5.8L14 8.3c-1 0-1.9.8-1.9 1.8s.9 1.9 1.9 1.9c.7 0 1.3-.4 1.6-1l3.9 1.8A5.9 5.9 0 0 1 8.9 9.3zm6 .8a.8.8 0 0 1-1.6 0c0-.4.3-.8.8-.8s.8.4.8.8zm-12.4 15a.6.6 0 0 1-.9 0 .6.6 0 0 1 0-.8l1-1 .8.9-1 1zM5.7 29a.6.6 0 0 1-.9 0 .6.6 0 0 1 0-.9l1-1 .8 1-1 .9zm3.5-3.5-1.8 1.8-.9-.9 1.8-1.7.1-.2v-.5h-.1l-1.6-1.7h-.1l-.1-.1H6l-1.8 1.4-.9-1 2.4-2.3 4.4 4.3-1 1zm6.8-7h-.4v.1l-4.8 5.2-4.3-4.2 2.8-2.9a.5.5 0 0 0-.4-.9H6.7v-1.6h3.1a7 7 0 0 0 5 2.2c.5 0 .9 0 1.3-.2l.1.1 2.4 1 .2.7.2 1-3-.5zm4 .2-.3-1.6 1.5-1 .9 1.2-2 1.4zm3.8-2.9-.9.8-.9-1.2.8-.6c.2-.2.4-.2.6-.2a.7.7 0 0 1 .4 1.2z" style="fill:var(--color1, #212121)"/>
      <path fill="#212121" d="m13.6 18.5-2.1-2a.5.5 0 0 0-.8 0l-2.1 2-.2.4c0 .1 0 .3.2.4l2.1 2.1a.5.5 0 0 0 .8 0l2.1-2.1a.5.5 0 0 0 0-.8zm-2.5 1.8-1.4-1.4 1.4-1.4 1.4 1.4-1.4 1.4zm6-15.2L17 6s1.7.5 1.7 2.2h1.1c0-2-1.7-3-2.5-3.2zm2.6 4.2h-1v1h1v-1z" style="fill:var(--color1, #212121)"/>
    </symbol>
    <symbol id="icon-mail" viewBox="0 0 43 32">
      <path d="M38.7 0H4a4 4 0 0 0-4 4v24a4 4 0 0 0 4 4h34.7a4 4 0 0 0 4-4V4a4 4 0 0 0-4-4zm0 2.7h.5L21.3 18.3 3.5 2.8l.5-.1h34.7zm0 26.6H4c-.7 0-1.3-.6-1.3-1.3V5.6L20.5 21c.2.2.5.3.8.3s.7 0 1-.3L40 5.6V28c0 .7-.6 1.3-1.3 1.3z"/>
    </symbol>
    <symbol id="icon-phone" viewBox="0 0 20 32">
      <path d="M17 0H3a3 3 0 0 0-3 3v26a3 3 0 0 0 3 3h14a3 3 0 0 0 3-3V3a3 3 0 0 0-3-3zM3 2h14c.6 0 1 .4 1 1v21H2V3c0-.6.4-1 1-1zm14 28H3a1 1 0 0 1-1-1v-3h16v3c0 .6-.4 1-1 1z"/>
      <path d="M4.7 27.5c.4.3.4 1 0 1.3a1 1 0 0 1-1.4 0 .9.9 0 0 1 0-1.3 1 1 0 0 1 1.4 0z"/>
    </symbol>
    <symbol id="icon-instagram" viewBox="0 0 32 32">
      <path d="M16 2.9h6.5a9 9 0 0 1 3 .6c.7.3 1.2.7 1.8 1.2s.9 1.1 1.2 1.9c.2.5.4 1.4.5 3l.1 6.4v6.4c0 1.1-.3 2.1-.7 3a5 5 0 0 1-1.1 1.9c-.6.5-1.1.9-1.9 1.2-.5.2-1.4.4-3 .5l-6.4.1H9.5c-1-.1-2-.3-3-.7a5 5 0 0 1-1.8-1.1c-.5-.6-.9-1.1-1.2-1.9-.3-.9-.5-1.9-.5-3a119.8 119.8 0 0 1 .5-15.8 5 5 0 0 1 1.2-1.9c.6-.5 1.1-.9 1.9-1.2.9-.3 1.9-.5 3-.5l6.4-.1zM16 0 9.4.1C7.7.1 6.5.4 5.5.8c-1 .5-2 1-2.8 1.9-.8.8-1.4 1.7-1.8 2.8-.5 1-.7 2.2-.8 3.9a125 125 0 0 0 0 13.2c0 1.7.3 2.9.7 3.9.5 1 1 2 1.9 2.8.8.8 1.7 1.4 2.8 1.8 1 .5 2.2.7 3.9.8a110 110 0 0 0 17-.7c1.1-.4 2-1 2.9-1.9s1.4-1.8 1.8-2.8c.4-1 .7-2.2.8-3.9V9.4c0-1.7-.4-2.9-.8-3.9s-1-2-1.8-2.8A7.8 7.8 0 0 0 26.5.9c-1-.5-2.2-.7-3.9-.8L16 0z"/>
      <path d="M16 7.8a8.2 8.2 0 1 0 0 16.4 8.2 8.2 0 1 0 0-16.4zm0 13.5a5.3 5.3 0 1 1 0-10.6 5.3 5.3 0 1 1 0 10.6zM26.5 7.5a2 2 0 0 1-3.9 0 2 2 0 0 1 3.9 0z"/>
    </symbol>
    <symbol id="icon-twitter" viewBox="0 0 32 32">
      <path d="M32 7c-1.2.6-2.4 1-3.8 1.1 1.4-.8 2.4-2 3-3.6-1.3.7-2.8 1.3-4.2 1.6a6.6 6.6 0 0 0-11.2 6A18.6 18.6 0 0 1 2.3 5.2c-.6 1-1 2-1 3.3 0 2.3 1.2 4.3 3 5.4-1.1 0-2.2-.3-3-.8v.1c0 3.2 2.2 5.8 5.2 6.5a6.4 6.4 0 0 1-3 0 6.6 6.6 0 0 0 6.2 4.6A13 13 0 0 1 0 27a18.5 18.5 0 0 0 28.8-15.7v-.8C30 9.5 31.1 8.4 32 7z"/>
    </symbol>
    <symbol id="icon-facebook" viewBox="0 0 32 32">
      <path d="M19 6h5V0h-5a7 7 0 0 0-7 7v3H8v6h4v16h6V16h5l1-6h-6V7c0-.5.5-1 1-1z"/>
    </symbol>
    <symbol id="icon-linkedin" viewBox="0 0 32 32">
      <path d="M12 12h5.5v2.8h.1a6.2 6.2 0 0 1 5.5-2.8c5.8 0 6.9 3.6 6.9 8.4V30h-5.8v-8.5c0-2 0-4.7-3-4.7s-3.4 2.2-3.4 4.5V30H12V12zM2 12h6v18H2V12zm6-5a3 3 0 1 1-6 0 3 3 0 1 1 6 0z"/>
    </symbol>
    <symbol id="icon-close" version="1.1" xmlns="http://www.w3.org/2000/svg" viewBox="0 0 32 32">
      <path fill="#fff" d="M32 16c0 8.837-7.163 16-16 16s-16-7.163-16-16c0-8.837 7.163-16 16-16s16 7.163 16 16z"></path>
      <path fill="none" stroke="rgba(0, 0, 0, 0.1)" stroke-linejoin="miter" stroke-linecap="butt" stroke-miterlimit="4" stroke-width="1.0667" d="M31.467 16c0 8.542-6.925 15.467-15.467 15.467s-15.467-6.925-15.467-15.467c0-8.542 6.925-15.467 15.467-15.467s15.467 6.925 15.467 15.467z"></path>
      <path  d="M22.4 10.782l-1.182-1.182-4.685 4.685-4.685-4.685-1.182 1.182 4.685 4.685-4.685 4.685 1.182 1.182 4.685-4.685 4.685 4.685 1.182-1.182-4.685-4.685 4.685-4.685z"></path>
    </symbol>
    <symbol id="icon-send" viewBox="0 0 32 32">
      <path fill="#fff" d="M32 0 0 18l10.2 3.8L26 7 14 23.2V32l5.7-6.7L27 28l5-28z" style="fill:var(--color1, #fff)"/>
    </symbol>
    <symbol id="icon-user-email" viewBox="0 0 43 32">
      <path d="M37.3 0h-32a4 4 0 0 0-4 4v24a4 4 0 0 0 4 4h32a4 4 0 0 0 4-4V4a4 4 0 0 0-4-4zm-.8 8.5-14.1 8.8a2 2 0 0 1-2.1 0L6 8.5c-.5-.3-.8-.9-.8-1.4 0-1.4 1.5-2.2 2.6-1.5L21.3 14l13.4-8.4a1.7 1.7 0 1 1 1.8 2.9z"/>
    </symbol>
    <symbol id="icon-user-phone" viewBox="0 0 32 32">
      <path d="m27.4 20.9-4.2-.5c-1-.1-2 .2-2.7 1l-3 3a24.9 24.9 0 0 1-11-11l3.1-3c.7-.7 1-1.7 1-2.7L10 3.5c-.2-1.7-1.6-3-3.3-3H3.9A3.3 3.3 0 0 0 .6 4 28.1 28.1 0 0 0 27 30.3c1.9.1 3.4-1.4 3.4-3.3V24c0-1.6-1.2-3-2.9-3.2z"/>
    </symbol>
    <symbol id="icon-username" viewBox="0 0 32 32">
      <path d="M16 16a8 8 0 1 0 0-16 8 8 0 0 0 0 16zm0 4c-5.3 0-16 2.7-16 8v2c0 1.1.9 2 2 2h28a2 2 0 0 0 2-2v-2c0-5.3-10.7-8-16-8z"/>
    </symbol>
  </defs>
</svg>
